<?xml version="1.0" encoding="UTF-8" standalone="no"?>
<svg xmlns:dc="http://purl.org/dc/elements/1.1/"
  xmlns:cc="http://creativecommons.org/ns#"
  xmlns:rdf="http://www.w3.org/1999/02/22-rdf-syntax-ns#"
  xmlns:svg="http://www.w3.org/2000/svg"
  xmlns:xlink="http://www.w3.org/1999/xlink"
  xmlns="http://www.w3.org/2000/svg" version="1.1"
  viewBox="0 0 4096 10424"
  >
  <style>
  :root {
    background: #000;
  }
  </style>
  <g id="background">
    <rect x="0" y="0" width="4096" height="10424" style="fill: #000;"/>
  </g>
  <g id="credits">
      <text style="fill: #aaa;font-family: Goldman;font-size: 256px;font-weight: 400;text-align: center;text-anchor: middle" transform="matrix(1, 0, 0, 1, 0, 0)">
    <tspan x="2048" y="2416">PSIODUEL</tspan>
  </text>
  <text style="fill: #aaa;font-family: Goldman;font-size: 100px;font-weight: 400;text-align: center;text-anchor: middle" transform="matrix(1, 0, 0, 1, 0, 0)">
    <tspan x="2048" y="2522">A STAR TREK FAN PRODUCTION</tspan>
  </text>
  <text style="fill: #aaa;font-family: Futura PT;font-size: 70px;font-weight: 500;text-align: center;text-anchor: middle" transform="matrix(1, 0, 0, 1, 0, 0)">
    <tspan x="2048" y="3040">HRÁLI</tspan>
  </text>
  <text style="fill: #aaa;font-family: Futura PT;font-size: 70px;font-weight: 300;text-align: right;text-anchor: end" transform="matrix(1, 0, 0, 1, 0, 0)">
    <tspan x="1968" y="3208">Kapitán Lubová</tspan>
  </text>
  <text style="fill: #aaa;font-family: Futura PT;font-size: 70px;font-weight: 500;text-align: left;text-anchor: start" transform="matrix(1, 0, 0, 1, 0, 0)">
    <tspan x="2128" y="3208">Veronika Horová</tspan>
  </text>
  <text style="fill: #aaa;font-family: Futura PT;font-size: 70px;font-weight: 300;text-align: right;text-anchor: end" transform="matrix(1, 0, 0, 1, 0, 0)">
    <tspan x="1968" y="3296">Poručík O´Calová</tspan>
  </text>
  <text style="fill: #aaa;font-family: Futura PT;font-size: 70px;font-weight: 500;text-align: left;text-anchor: start" transform="matrix(1, 0, 0, 1, 0, 0)">
    <tspan x="2128" y="3296">Nikol Gottwaldová</tspan>
  </text>
  <text style="fill: #aaa;font-family: Futura PT;font-size: 70px;font-weight: 300;text-align: right;text-anchor: end" transform="matrix(1, 0, 0, 1, 0, 0)">
    <tspan x="1968" y="3384">K9</tspan>
  </text>
  <text style="fill: #aaa;font-family: Futura PT;font-size: 70px;font-weight: 500;text-align: left;text-anchor: start" transform="matrix(1, 0, 0, 1, 0, 0)">
    <tspan x="2128" y="3384">Igor Gottwald</tspan>
  </text>
  <text style="fill: #aaa;font-family: Futura PT;font-size: 70px;font-weight: 300;text-align: right;text-anchor: end" transform="matrix(1, 0, 0, 1, 0, 0)">
    <tspan x="1968" y="3472">Q47</tspan>
  </text>
  <text style="fill: #aaa;font-family: Futura PT;font-size: 70px;font-weight: 500;text-align: left;text-anchor: start" transform="matrix(1, 0, 0, 1, 0, 0)">
    <tspan x="2128" y="3472">Radek Bělina</tspan>
  </text>
  <text style="fill: #aaa;font-family: Futura PT;font-size: 70px;font-weight: 300;text-align: right;text-anchor: end" transform="matrix(1, 0, 0, 1, 0, 0)">
    <tspan x="1968" y="3560">Laona</tspan>
  </text>
  <text style="fill: #aaa;font-family: Futura PT;font-size: 70px;font-weight: 500;text-align: left;text-anchor: start" transform="matrix(1, 0, 0, 1, 0, 0)">
    <tspan x="2128" y="3560">Sabina Koudelková</tspan>
  </text>
  <text style="fill: #aaa;font-family: Futura PT;font-size: 70px;font-weight: 300;text-align: right;text-anchor: end" transform="matrix(1, 0, 0, 1, 0, 0)">
    <tspan x="1968" y="3648">Praporčík Tuttle</tspan>
  </text>
  <text style="fill: #aaa;font-family: Futura PT;font-size: 70px;font-weight: 500;text-align: left;text-anchor: start" transform="matrix(1, 0, 0, 1, 0, 0)">
    <tspan x="2128" y="3648">Filip Kučera</tspan>
  </text>
  <text style="fill: #aaa;font-family: Futura PT;font-size: 70px;font-weight: 500;text-align: center;text-anchor: middle" transform="matrix(1, 0, 0, 1, 0, 0)">
    <tspan x="2048" y="3864">ŠTÁB</tspan>
  </text>
  <text style="fill: #aaa;font-family: Futura PT;font-size: 70px;font-weight: 300;text-align: right;text-anchor: end" transform="matrix(1, 0, 0, 1, 0, 0)">
    <tspan x="1968" y="4032">Scénář</tspan>
  </text>
  <text style="fill: #aaa;font-family: Futura PT;font-size: 70px;font-weight: 500;text-align: left;text-anchor: start" transform="matrix(1, 0, 0, 1, 0, 0)">
    <tspan x="2128" y="4032">Jan Krátký</tspan>
  </text>
  <text style="fill: #aaa;font-family: Futura PT;font-size: 70px;font-weight: 300;text-align: right;text-anchor: end" transform="matrix(1, 0, 0, 1, 0, 0)">
    <tspan x="1968" y="4120">Režie</tspan>
  </text>
  <text style="fill: #aaa;font-family: Futura PT;font-size: 70px;font-weight: 500;text-align: left;text-anchor: start" transform="matrix(1, 0, 0, 1, 0, 0)">
    <tspan x="2128" y="4120">Jan Krátký</tspan>
  </text>
  <text style="fill: #aaa;font-family: Futura PT;font-size: 70px;font-weight: 300;text-align: right;text-anchor: end" transform="matrix(1, 0, 0, 1, 0, 0)">
    <tspan x="1968" y="4208">Hlavní kameraman</tspan>
  </text>
  <text style="fill: #aaa;font-family: Futura PT;font-size: 70px;font-weight: 500;text-align: left;text-anchor: start" transform="matrix(1, 0, 0, 1, 0, 0)">
    <tspan x="2128" y="4208">Rastislav Švarba</tspan>
  </text>
  <text style="fill: #aaa;font-family: Futura PT;font-size: 70px;font-weight: 300;text-align: right;text-anchor: end" transform="matrix(1, 0, 0, 1, 0, 0)">
    <tspan x="1968" y="4296">Kamera</tspan>
  </text>
  <text style="fill: #aaa;font-family: Futura PT;font-size: 70px;font-weight: 500;text-align: left;text-anchor: start" transform="matrix(1, 0, 0, 1, 0, 0)">
    <tspan x="2128" y="4296">Vladimír Novotný</tspan>
  </text>
  <text style="fill: #aaa;font-family: Futura PT;font-size: 70px;font-weight: 300;text-align: right;text-anchor: end" transform="matrix(1, 0, 0, 1, 0, 0)">
    <tspan x="1968" y="4384">Střih a postprodukce</tspan>
  </text>
  <text style="fill: #aaa;font-family: Futura PT;font-size: 70px;font-weight: 500;text-align: left;text-anchor: start" transform="matrix(1, 0, 0, 1, 0, 0)">
    <tspan x="2128" y="4384">Radek Bělina</tspan><tspan x="2128" y="4472">Vladimír Novotný</tspan><tspan x="2128" y="4560">Rastislav Švarba</tspan>
  </text>
  <text style="fill: #aaa;font-family: Futura PT;font-size: 70px;font-weight: 300;text-align: right;text-anchor: end" transform="matrix(1, 0, 0, 1, 0, 0)">
    <tspan x="1968" y="4648">3D VFX</tspan>
  </text>
  <text style="fill: #aaa;font-family: Futura PT;font-size: 70px;font-weight: 500;text-align: left;text-anchor: start" transform="matrix(1, 0, 0, 1, 0, 0)">
    <tspan x="2128" y="4648">Pavel Houska</tspan>
  </text>
  <text style="fill: #aaa;font-family: Futura PT;font-size: 70px;font-weight: 300;text-align: right;text-anchor: end" transform="matrix(1, 0, 0, 1, 0, 0)">
    <tspan x="1968" y="4736">Color Grading a VFX</tspan>
  </text>
  <text style="fill: #aaa;font-family: Futura PT;font-size: 70px;font-weight: 500;text-align: left;text-anchor: start" transform="matrix(1, 0, 0, 1, 0, 0)">
    <tspan x="2128" y="4736">Rastislav Švarba</tspan>
  </text>
  <text style="fill: #aaa;font-family: Futura PT;font-size: 70px;font-weight: 300;text-align: right;text-anchor: end" transform="matrix(1, 0, 0, 1, 0, 0)">
    <tspan x="1968" y="4824">Masky a líčení</tspan>
  </text>
  <text style="fill: #aaa;font-family: Futura PT;font-size: 70px;font-weight: 500;text-align: left;text-anchor: start" transform="matrix(1, 0, 0, 1, 0, 0)">
    <tspan x="2128" y="4824">Linda Chudomelová</tspan><tspan x="2128" y="4912">Roxana Popa</tspan>
  </text>
  <text style="fill: #aaa;font-family: Futura PT;font-size: 70px;font-weight: 300;text-align: right;text-anchor: end" transform="matrix(1, 0, 0, 1, 0, 0)">
    <tspan x="1968" y="5000">Zvuk</tspan>
  </text>
  <text style="fill: #aaa;font-family: Futura PT;font-size: 70px;font-weight: 500;text-align: left;text-anchor: start" transform="matrix(1, 0, 0, 1, 0, 0)">
    <tspan x="2128" y="5000">Zbyněk Suchý</tspan>
  </text>
  <text style="fill: #aaa;font-family: Futura PT;font-size: 70px;font-weight: 300;text-align: right;text-anchor: end" transform="matrix(1, 0, 0, 1, 0, 0)">
    <tspan x="1968" y="5088">Kostýmy</tspan>
  </text>
  <text style="fill: #aaa;font-family: Futura PT;font-size: 70px;font-weight: 500;text-align: left;text-anchor: start" transform="matrix(1, 0, 0, 1, 0, 0)">
    <tspan x="2128" y="5088">Zuzana Bělinová</tspan><tspan x="2128" y="5176">Eva Železná</tspan>
  </text>
  <text style="fill: #aaa;font-family: Futura PT;font-size: 70px;font-weight: 300;text-align: right;text-anchor: end" transform="matrix(1, 0, 0, 1, 0, 0)">
    <tspan x="1968" y="5264">Best Boy</tspan>
  </text>
  <text style="fill: #aaa;font-family: Futura PT;font-size: 70px;font-weight: 500;text-align: left;text-anchor: start" transform="matrix(1, 0, 0, 1, 0, 0)">
    <tspan x="2128" y="5264">Martin Božek</tspan><tspan x="2128" y="5352">Filip Kučera</tspan>
  </text>
  <text style="fill: #aaa;font-family: Futura PT;font-size: 70px;font-weight: 300;text-align: right;text-anchor: end" transform="matrix(1, 0, 0, 1, 0, 0)">
    <tspan x="1968" y="5440">Hudba</tspan>
  </text>
  <text style="fill: #aaa;font-family: Futura PT;font-size: 70px;font-weight: 500;text-align: left;text-anchor: start" transform="matrix(1, 0, 0, 1, 0, 0)">
    <tspan x="2128" y="5440">AIVA, Jan Krátký</tspan>
  </text>
  <text style="fill: #aaa;font-family: Futura PT;font-size: 70px;font-weight: 300;text-align: right;text-anchor: end" transform="matrix(1, 0, 0, 1, 0, 0)">
    <tspan x="1968" y="5528">Matrix style DR template</tspan>
  </text>
  <text style="fill: #aaa;font-family: Futura PT;font-size: 70px;font-weight: 500;text-align: left;text-anchor: start" transform="matrix(1, 0, 0, 1, 0, 0)">
    <tspan x="2128" y="5528">Motion VFX (motionvfx.com)</tspan>
  </text>
  <text style="fill: #aaa;font-family: Futura PT;font-size: 70px;font-weight: 500;text-align: center;text-anchor: middle" transform="matrix(1, 0, 0, 1, 0, 0)">
    <tspan x="2048" y="5744">KULISY</tspan>
  </text>
  <text style="fill: #aaa;font-family: Futura PT;font-size: 70px;font-weight: 300;text-align: center;text-anchor: middle" transform="matrix(1, 0, 0, 1, 0, 0)">
    <tspan x="1024" y="5912">Radek „Flash“ Bělina</tspan>
  </text>
  <text style="fill: #aaa;font-family: Futura PT;font-size: 70px;font-weight: 300;text-align: center;text-anchor: middle" transform="matrix(1, 0, 0, 1, 0, 0)">
    <tspan x="2048" y="5912">Martin „Bóža“ Božek</tspan>
  </text>
  <text style="fill: #aaa;font-family: Futura PT;font-size: 70px;font-weight: 300;text-align: center;text-anchor: middle" transform="matrix(1, 0, 0, 1, 0, 0)">
    <tspan x="3072" y="5912">Jana „Xyll“ Krčmářová</tspan>
  </text>
  <text style="fill: #aaa;font-family: Futura PT;font-size: 70px;font-weight: 300;text-align: center;text-anchor: middle" transform="matrix(1, 0, 0, 1, 0, 0)">
    <tspan x="1024" y="6000">Zuzana „Zana“ Bělinová</tspan>
  </text>
  <text style="fill: #aaa;font-family: Futura PT;font-size: 70px;font-weight: 300;text-align: center;text-anchor: middle" transform="matrix(1, 0, 0, 1, 0, 0)">
    <tspan x="2048" y="6000">Jan „Sokar“ Krátký</tspan>
  </text>
  <text style="fill: #aaa;font-family: Futura PT;font-size: 70px;font-weight: 300;text-align: center;text-anchor: middle" transform="matrix(1, 0, 0, 1, 0, 0)">
    <tspan x="3072" y="6000">Ondřej „Molir“ Kratochvil</tspan>
  </text>
  <text style="fill: #aaa;font-family: Futura PT;font-size: 70px;font-weight: 300;text-align: center;text-anchor: middle" transform="matrix(1, 0, 0, 1, 0, 0)">
    <tspan x="1024" y="6088">Filip „Fildas“ Kučera</tspan>
  </text>
  <text style="fill: #aaa;font-family: Futura PT;font-size: 70px;font-weight: 300;text-align: center;text-anchor: middle" transform="matrix(1, 0, 0, 1, 0, 0)">
    <tspan x="2048" y="6088">Miloš Juna</tspan>
  </text>
  <text style="fill: #aaa;font-family: Futura PT;font-size: 70px;font-weight: 300;text-align: center;text-anchor: middle" transform="matrix(1, 0, 0, 1, 0, 0)">
    <tspan x="3072" y="6088">Tereza Junová</tspan>
  </text>
  <text style="fill: #aaa;font-family: Futura PT;font-size: 70px;font-weight: 300;text-align: center;text-anchor: middle" transform="matrix(1, 0, 0, 1, 0, 0)">
    <tspan x="1024" y="6176">Eva „Barevná“ Železná</tspan>
  </text>
  <text style="fill: #aaa;font-family: Futura PT;font-size: 70px;font-weight: 300;text-align: center;text-anchor: middle" transform="matrix(1, 0, 0, 1, 0, 0)">
    <tspan x="2048" y="6176">Jan „Zephram“ Gruber</tspan>
  </text>
  <text style="fill: #aaa;font-family: Futura PT;font-size: 70px;font-weight: 300;text-align: center;text-anchor: middle" transform="matrix(1, 0, 0, 1, 0, 0)">
    <tspan x="3072" y="6176">Michal „Eliass“ Gans</tspan>
  </text>
  <text style="fill: #aaa;font-family: Futura PT;font-size: 70px;font-weight: 300;text-align: center;text-anchor: middle" transform="matrix(1, 0, 0, 1, 0, 0)">
    <tspan x="1024" y="6264">Petr „Shake“ Malina</tspan>
  </text>
  <text style="fill: #aaa;font-family: Futura PT;font-size: 70px;font-weight: 300;text-align: center;text-anchor: middle" transform="matrix(1, 0, 0, 1, 0, 0)">
    <tspan x="2048" y="6264">Lenka „Leena“ Bláhová</tspan>
  </text>
  <text style="fill: #aaa;font-family: Futura PT;font-size: 70px;font-weight: 300;text-align: center;text-anchor: middle" transform="matrix(1, 0, 0, 1, 0, 0)">
    <tspan x="3072" y="6264">Lucie „Rin“ Hrivňáková</tspan>
  </text>
  <text style="fill: #aaa;font-family: Futura PT;font-size: 70px;font-weight: 300;text-align: center;text-anchor: middle" transform="matrix(1, 0, 0, 1, 0, 0)">
    <tspan x="1024" y="6352">Jana „Molík“ Babáčková</tspan>
  </text>
  <text style="fill: #aaa;font-family: Futura PT;font-size: 70px;font-weight: 300;text-align: center;text-anchor: middle" transform="matrix(1, 0, 0, 1, 0, 0)">
    <tspan x="2048" y="6352">Aleš Hakl</tspan>
  </text>
  <text style="fill: #aaa;font-family: Futura PT;font-size: 70px;font-weight: 300;text-align: center;text-anchor: middle" transform="matrix(1, 0, 0, 1, 0, 0)">
    <tspan x="3072" y="6352">Linda Chudomelová</tspan>
  </text>
  <text style="fill: #aaa;font-family: Futura PT;font-size: 70px;font-weight: 300;text-align: center;text-anchor: middle" transform="matrix(1, 0, 0, 1, 0, 0)">
    <tspan x="1024" y="6440">Karel „Margh“ Škop</tspan>
  </text>
  <text style="fill: #aaa;font-family: Futura PT;font-size: 70px;font-weight: 300;text-align: center;text-anchor: middle" transform="matrix(1, 0, 0, 1, 0, 0)">
    <tspan x="2048" y="6440">Vladimír „Jacob“ Novotný</tspan>
  </text>
  <text style="fill: #aaa;font-family: Futura PT;font-size: 70px;font-weight: 300;text-align: center;text-anchor: middle" transform="matrix(1, 0, 0, 1, 0, 0)">
    <tspan x="3072" y="6440">Rastislav „ra100“ Švarba</tspan>
  </text>
  <text style="fill: #aaa;font-family: Futura PT;font-size: 70px;font-weight: 300;text-align: center;text-anchor: middle" transform="matrix(1, 0, 0, 1, 0, 0)">
    <tspan x="1024" y="6528">Anna „galbovka“ Galbová</tspan>
  </text>
  <text style="fill: #aaa;font-family: Futura PT;font-size: 70px;font-weight: 300;text-align: center;text-anchor: middle" transform="matrix(1, 0, 0, 1, 0, 0)">
    <tspan x="2048" y="6528">Jakub „Jimmy“ Holý</tspan>
  </text>
  <text style="fill: #aaa;font-family: Futura PT;font-size: 70px;font-weight: 300;text-align: center;text-anchor: middle" transform="matrix(1, 0, 0, 1, 0, 0)">
    <tspan x="3072" y="6528">Jana „yarche“ Křečková</tspan>
  </text>
  <text style="fill: #aaa;font-family: Futura PT;font-size: 70px;font-weight: 300;text-align: center;text-anchor: middle" transform="matrix(1, 0, 0, 1, 0, 0)">
    <tspan x="1024" y="6616">Jana „Jayne“ Adámková</tspan>
  </text>
  <text style="fill: #aaa;font-family: Futura PT;font-size: 70px;font-weight: 300;text-align: center;text-anchor: middle" transform="matrix(1, 0, 0, 1, 0, 0)">
    <tspan x="2048" y="6616">Michal „omi“ Husák</tspan>
  </text>
  <text style="fill: #aaa;font-family: Futura PT;font-size: 70px;font-weight: 300;text-align: center;text-anchor: middle" transform="matrix(1, 0, 0, 1, 0, 0)">
    <tspan x="3072" y="6616">Petr „Polda“ Polášek</tspan>
  </text>
  <text style="fill: #aaa;font-family: Futura PT;font-size: 70px;font-weight: 300;text-align: center;text-anchor: middle" transform="matrix(1, 0, 0, 1, 0, 0)">
    <tspan x="1024" y="6704">Zdeňka „Tai“ Březinová</tspan>
  </text>
  <text style="fill: #aaa;font-family: Futura PT;font-size: 70px;font-weight: 300;text-align: center;text-anchor: middle" transform="matrix(1, 0, 0, 1, 0, 0)">
    <tspan x="2048" y="6704">Karel „Carlos“ Krincwayg</tspan>
  </text>
  <text style="fill: #aaa;font-family: Futura PT;font-size: 70px;font-weight: 300;text-align: center;text-anchor: middle" transform="matrix(1, 0, 0, 1, 0, 0)">
    <tspan x="3072" y="6704">Karel „Kaďous“ Černý</tspan>
  </text>
  <text style="fill: #aaa;font-family: Futura PT;font-size: 70px;font-weight: 300;text-align: center;text-anchor: middle" transform="matrix(1, 0, 0, 1, 0, 0)">
    <tspan x="1024" y="6792">Jaroslav Kučera</tspan>
  </text>
  <text style="fill: #aaa;font-family: Futura PT;font-size: 70px;font-weight: 300;text-align: center;text-anchor: middle" transform="matrix(1, 0, 0, 1, 0, 0)">
    <tspan x="2048" y="6792"></tspan>
  </text>
  <text style="fill: #aaa;font-family: Futura PT;font-size: 70px;font-weight: 300;text-align: center;text-anchor: middle" transform="matrix(1, 0, 0, 1, 0, 0)">
    <tspan x="3072" y="6792">a další ...</tspan>
  </text>
  <text style="fill: #aaa;font-family: Futura PT;font-size: 70px;font-weight: 300;text-align: center;text-anchor: middle" transform="matrix(1, 0, 0, 1, 0, 0)">
    <tspan x="2048" y="7008">Poděkování</tspan>
  </text>
  <text style="fill: #aaa;font-family: Futura PT;font-size: 70px;font-weight: 500;text-align: center;text-anchor: middle" transform="matrix(1, 0, 0, 1, 0, 0)">
    <tspan x="1024" y="7120">Obec Běrunice</tspan>
  </text>
  <text style="fill: #aaa;font-family: Futura PT;font-size: 70px;font-weight: 500;text-align: center;text-anchor: middle" transform="matrix(1, 0, 0, 1, 0, 0)">
    <tspan x="2048" y="7120">Devoteam ALPS&amp;ICE</tspan>
  </text>
  <text style="fill: #aaa;font-family: Futura PT;font-size: 70px;font-weight: 500;text-align: center;text-anchor: middle" transform="matrix(1, 0, 0, 1, 0, 0)">
    <tspan x="3072" y="7120">Polykarbonáty ZENIT, Praha</tspan>
  </text>
  <text style="fill: #aaa;font-family: Futura PT;font-size: 70px;font-weight: 500;text-align: center;text-anchor: middle" transform="matrix(1, 0, 0, 1, 0, 0)">
    <tspan x="1024" y="7208">AB Tex pletárna s.r.o., Brno</tspan>
  </text>
  <text style="fill: #aaa;font-family: Futura PT;font-size: 70px;font-weight: 500;text-align: center;text-anchor: middle" transform="matrix(1, 0, 0, 1, 0, 0)">
    <tspan x="2048" y="7208">Tiskárna imprimé, Praha</tspan>
  </text>
  <text style="fill: #aaa;font-family: Futura PT;font-size: 70px;font-weight: 500;text-align: center;text-anchor: middle" transform="matrix(1, 0, 0, 1, 0, 0)">
    <tspan x="3072" y="7208">Látky Primemax, Vidnava</tspan>
  </text>
  <text style="fill: #aaa;font-family: Futura PT;font-size: 70px;font-weight: 300;text-align: center;text-anchor: middle" transform="matrix(1, 0, 0, 1, 0, 0)">
    <tspan x="2048" y="7376">Poděkování našim Patronům</tspan>
  </text>
  <text style="fill: #aaa;font-family: Futura PT;font-size: 70px;font-weight: 500;text-align: center;text-anchor: middle" transform="matrix(1, 0, 0, 1, 0, 0)">
    <tspan x="1024" y="7488">Filip Kučera</tspan>
  </text>
  <text style="fill: #aaa;font-family: Futura PT;font-size: 70px;font-weight: 500;text-align: center;text-anchor: middle" transform="matrix(1, 0, 0, 1, 0, 0)">
    <tspan x="2048" y="7488">Jakub Červinka ~gods.cz~</tspan>
  </text>
  <text style="fill: #aaa;font-family: Futura PT;font-size: 70px;font-weight: 500;text-align: center;text-anchor: middle" transform="matrix(1, 0, 0, 1, 0, 0)">
    <tspan x="3072" y="7488">Jan Dundáček</tspan>
  </text>
  <text style="fill: #aaa;font-family: Futura PT;font-size: 70px;font-weight: 500;text-align: center;text-anchor: middle" transform="matrix(1, 0, 0, 1, 0, 0)">
    <tspan x="1024" y="7576">Rastislav Švarba</tspan>
  </text>
  <text style="fill: #aaa;font-family: Futura PT;font-size: 70px;font-weight: 500;text-align: center;text-anchor: middle" transform="matrix(1, 0, 0, 1, 0, 0)">
    <tspan x="2048" y="7576">Josef Šédl</tspan>
  </text>
  <text style="fill: #aaa;font-family: Futura PT;font-size: 70px;font-weight: 500;text-align: center;text-anchor: middle" transform="matrix(1, 0, 0, 1, 0, 0)">
    <tspan x="3072" y="7576">Doctor9</tspan>
  </text>
  <text style="fill: #aaa;font-family: Futura PT;font-size: 70px;font-weight: 500;text-align: center;text-anchor: middle" transform="matrix(1, 0, 0, 1, 0, 0)">
    <tspan x="1024" y="7664"></tspan>
  </text>
  <text style="fill: #aaa;font-family: Futura PT;font-size: 70px;font-weight: 500;text-align: center;text-anchor: middle" transform="matrix(1, 0, 0, 1, 0, 0)">
    <tspan x="2048" y="7664">Lukáš Bílek</tspan>
  </text>
  <text style="fill: #aaa;font-family: Futura PT;font-size: 70px;font-weight: 500;text-align: center;text-anchor: middle" transform="matrix(1, 0, 0, 1, 0, 0)">
    <tspan x="2048" y="7832">Nafilmováno ve fanouškovských studiích</tspan><tspan x="2048" y="7920">v obci Běrunice v České republice</tspan>
  </text>
  <text style="fill: #aaa;font-family: Futura PT;font-size: 70px;font-weight: 500;text-align: center;text-anchor: middle" transform="matrix(1, 0, 0, 1, 0, 0)">
    <tspan x="2048" y="8008"> </tspan>
  </text>
  <text style="fill: #aaa;font-family: Futura PT;font-size: 70px;font-weight: 500;text-align: center;text-anchor: middle" transform="matrix(1, 0, 0, 1, 0, 0)">
    <tspan x="2048" y="8096">© 2022 FSFilm</tspan>
  </text>
  </g>
</svg>
